<svg xmlns="http://www.w3.org/2000/svg" viewBox="0 0 144.41 195.99"><title>Logo food map</title><g id="Layer_2" data-name="Layer 2"><g id="Layer_1-2" data-name="Layer 1"><path d="M72.17,0A72.26,72.26,0,0,0,0,72.17,71,71,0,0,0,1.28,85.72c0,.26,9.59,50.16,67.71,109.14a5.11,5.11,0,0,0,6.42,0C127.41,143,141.54,93,142.64,88.13c.3-1.36.45-2.15.49-2.42a74.15,74.15,0,0,0,1.28-13.55A72.37,72.37,0,0,0,72.17,0Z" fill="#df1a22"/><circle cx="72.2" cy="72.9" r="59.26" fill="#fff"/><path d="M72.2,20.31A52.77,52.77,0,0,0,49.48,120.72L51.13,88.8s-3.12-1-3.78-1.36C40.75,84.53,36,76,36,64.87c0-12.09,9.38-22.53,18.48-22.62h0c9.07.1,18.48,10.53,18.48,22.62,0,11.1-4.79,19.66-11.39,22.57l-3.82,1.39,1.85,35.5A51.68,51.68,0,0,0,89,123.15l1.64-31.64a17,17,0,0,1-10.3-7.15c-2.87-4.26,2.2-42.12,2.2-42.12h3.29V77.77H89.1V42.25h3.55V77.77h3.27V42.25H99.6V77.77h3.27V42.25h2.52s5,37.86,2.2,42.14a17.11,17.11,0,0,1-10.18,7.11.6.6,0,0,0-.13.05l1.41,27.21A52.77,52.77,0,0,0,72.2,20.31Zm0,0" fill="#df1a22"/><path d="M43.68,59.52c.19-.79.46-1.51.46-1.53a.69.69,0,0,0-.38-.76.64.64,0,0,0-.82.17L42,58.83a14.82,14.82,0,0,0-1.47,3.36,27.3,27.3,0,0,0-1,4.87c-.08,1-.09,1.89-.08,2.81a13.39,13.39,0,0,0,.56,3c1,3,1.83,5.81,4.72,8.62a14.74,14.74,0,0,0,2.52,2l.23.17.42.27a5.48,5.48,0,0,0,1,.42.61.61,0,0,0,.69-.28.62.62,0,0,0-.21-.74,6.82,6.82,0,0,1-.75-.82,15.09,15.09,0,0,1-1-1.32c-.25-.38-.55-.8-.84-1.22-1.39-2.14-2.22-5.12-3.32-8.2A10.68,10.68,0,0,1,43,69.55c-.08-.84-.14-1.66-.14-2.41a35,35,0,0,1,.21-4.49,17.72,17.72,0,0,1,.56-3.13Zm0,0" fill="#df1a22"/><path d="M72.2,131.07" fill="#231f20"/></g></g></svg>