<svg xmlns="http://www.w3.org/2000/svg" viewBox="0 0 144.41 195.99"><title>Marker food map</title><g id="Layer_2" data-name="Layer 2"><g id="Layer_1-2" data-name="Layer 1"><path d="M72.17,0A72.26,72.26,0,0,0,0,72.17,71,71,0,0,0,1.28,85.72c0,.26,9.59,50.16,67.71,109.14a5.11,5.11,0,0,0,6.42,0C127.41,143,141.54,93,142.64,88.13c.3-1.36.45-2.15.49-2.42a74.15,74.15,0,0,0,1.28-13.55A72.37,72.37,0,0,0,72.17,0Z" fill="#df1a22"/><circle cx="72.16" cy="72.9" r="59.26" fill="#df1a22"/><path d="M72.2,13.64A59.16,59.16,0,0,0,46.73,126.22l1.84-35.8s-3.49-1.16-4.24-1.52C36.94,85.65,31.56,76.05,31.56,63.6c0-13.56,10.52-25.26,20.72-25.37h0C62.5,38.34,73,50,73,63.6c0,12.45-5.37,22-12.77,25.31L56,90.47l2.08,39.81a57.94,57.94,0,0,0,33-1.33l1.84-35.47a19.05,19.05,0,0,1-11.54-8c-3.21-4.78,2.46-47.22,2.46-47.22h3.69V78.06h3.66V38.23h4V78.06h3.66V38.23h4.14V78.06h3.66V38.23h2.83s5.65,42.45,2.46,47.24a19.18,19.18,0,0,1-11.42,8,.67.67,0,0,0-.15.06L101.9,124A59.17,59.17,0,0,0,72.2,13.64Zm0,0" fill="#fff"/><path d="M40.22,57.61c.21-.88.51-1.69.51-1.72A.78.78,0,0,0,40.3,55a.72.72,0,0,0-.92.19l-1,1.61a16.62,16.62,0,0,0-1.65,3.77,30.61,30.61,0,0,0-1.16,5.46c-.09,1.12-.1,2.12-.09,3.15a15,15,0,0,0,.63,3.36c1.16,3.32,2.06,6.51,5.29,9.66a16.53,16.53,0,0,0,2.82,2.29l.26.19L45,85a6.15,6.15,0,0,0,1.16.47.68.68,0,0,0,.77-.32.7.7,0,0,0-.24-.83,7.64,7.64,0,0,1-.84-.92,16.91,16.91,0,0,1-1.09-1.48c-.28-.43-.62-.9-.94-1.37-1.56-2.4-2.48-5.74-3.72-9.19a12,12,0,0,1-.54-2.53c-.09-.94-.15-1.86-.15-2.7a39.3,39.3,0,0,1,.24-5,19.87,19.87,0,0,1,.63-3.51Zm0,0" fill="#fff"/><path d="M72.2,137.82" fill="#fff"/></g></g></svg>